<mxfile host="65bd71144e">
    <diagram id="tKPZONu1pbF4-AVGqXGf" name="Page-1">
        <mxGraphModel dx="1696" dy="607" grid="1" gridSize="10" guides="1" tooltips="1" connect="1" arrows="1" fold="1" page="1" pageScale="1" pageWidth="850" pageHeight="1100" math="0" shadow="0">
            <root>
                <mxCell id="0"/>
                <mxCell id="1" parent="0"/>
                <mxCell id="2" value="&lt;div&gt;OCSP (Komp)&lt;/div&gt;" style="rounded=0;whiteSpace=wrap;html=1;fillColor=#eeeeee;strokeColor=#666666;" parent="1" vertex="1">
                    <mxGeometry x="1000" y="60" width="120" height="40" as="geometry"/>
                </mxCell>
                <mxCell id="3" value="&lt;font style=&quot;font-size: 14px;&quot;&gt;&amp;nbsp;PoPP-Service&amp;nbsp; (Anbieter)&lt;/font&gt;" style="rounded=0;whiteSpace=wrap;html=1;fillColor=#ECFCEB;strokeColor=#82b366;align=left;verticalAlign=top;" parent="1" vertex="1">
                    <mxGeometry x="470" y="120" width="690" height="450" as="geometry"/>
                </mxCell>
                <mxCell id="9" value="&lt;div&gt;BDE-Lieferung&lt;/div&gt;" style="rounded=0;whiteSpace=wrap;html=1;fillColor=#d5e8d4;strokeColor=#82b366;" parent="1" vertex="1">
                    <mxGeometry x="972" y="519.5" width="120" height="40" as="geometry"/>
                </mxCell>
                <mxCell id="17" value="" style="group" parent="1" vertex="1" connectable="0">
                    <mxGeometry x="480" y="150" width="330" height="350" as="geometry"/>
                </mxCell>
                <mxCell id="18" value="&lt;b&gt;&lt;font style=&quot;font-size: 14px;&quot;&gt;ZETA Guard&lt;/font&gt;&lt;/b&gt;" style="rounded=0;whiteSpace=wrap;html=1;align=center;verticalAlign=top;fillColor=#fff3e5;strokeColor=#d79b00;" parent="17" vertex="1">
                    <mxGeometry width="302.5" height="350" as="geometry"/>
                </mxCell>
                <mxCell id="19" value="Ingress&lt;div&gt;und&lt;/div&gt;&lt;div&gt;Egress&lt;div&gt;&lt;/div&gt;&lt;/div&gt;" style="rounded=0;whiteSpace=wrap;html=1;fillColor=#ffe6cc;strokeColor=#d79b00;verticalAlign=top;" parent="17" vertex="1">
                    <mxGeometry x="8.684210526315788" y="10" width="43.421052631578945" height="330" as="geometry"/>
                </mxCell>
                <mxCell id="20" value="PDP" style="rounded=0;whiteSpace=wrap;html=1;fillColor=none;verticalAlign=top;strokeColor=#FFB570;dashed=1;strokeWidth=2;align=right;" parent="17" vertex="1">
                    <mxGeometry x="60.79333333333332" y="120" width="205.04" height="140" as="geometry"/>
                </mxCell>
                <mxCell id="21" value="Authorization Server&lt;div&gt;(LEI Session)&lt;/div&gt;" style="rounded=0;whiteSpace=wrap;html=1;fillColor=#ffe6cc;strokeColor=#d79b00;" parent="17" vertex="1">
                    <mxGeometry x="69.47" y="140" width="120.53" height="40" as="geometry"/>
                </mxCell>
                <mxCell id="22" value="Policy&lt;br&gt;&amp;nbsp;Engine" style="rounded=0;whiteSpace=wrap;html=1;fillColor=#ffe6cc;strokeColor=#d79b00;" parent="17" vertex="1">
                    <mxGeometry x="191.05166666666665" y="210" width="65.615" height="40" as="geometry"/>
                </mxCell>
                <mxCell id="23" value="Client Registry&lt;div&gt;(LEI /Device/)&lt;/div&gt;" style="rounded=0;whiteSpace=wrap;html=1;fillColor=#ffe6cc;strokeColor=#d79b00;" parent="17" vertex="1">
                    <mxGeometry x="69.4736842105263" y="210" width="104.21052631578945" height="40" as="geometry"/>
                </mxCell>
                <mxCell id="24" value="Telemetrie-Daten&amp;nbsp;&lt;span style=&quot;background-color: initial;&quot;&gt;Service&lt;/span&gt;" style="rounded=0;whiteSpace=wrap;html=1;fillColor=#ffe6cc;strokeColor=#d79b00;" parent="17" vertex="1">
                    <mxGeometry x="191.0526315789473" y="290" width="104.21052631578945" height="40" as="geometry"/>
                </mxCell>
                <mxCell id="25" value="Cluster Management&lt;div&gt;Service&lt;/div&gt;" style="rounded=0;whiteSpace=wrap;html=1;fillColor=#ffe6cc;strokeColor=#d79b00;" parent="17" vertex="1">
                    <mxGeometry x="69.4736842105263" y="290" width="104.21052631578945" height="40" as="geometry"/>
                </mxCell>
                <mxCell id="26" value="PEP" style="rounded=0;whiteSpace=wrap;html=1;fillColor=none;verticalAlign=top;strokeColor=#FFB570;dashed=1;strokeWidth=2;align=right;" parent="17" vertex="1">
                    <mxGeometry x="60.78947368421052" y="40" width="130.26315789473685" height="70" as="geometry"/>
                </mxCell>
                <mxCell id="27" value="http Proxy" style="rounded=0;whiteSpace=wrap;html=1;fillColor=#ffe6cc;strokeColor=#d79b00;" parent="17" vertex="1">
                    <mxGeometry x="69.4736842105263" y="60" width="104.21052631578945" height="40" as="geometry"/>
                </mxCell>
                <mxCell id="28" value="&lt;div&gt;Monitoring&lt;/div&gt;" style="rounded=0;whiteSpace=wrap;html=1;fillColor=#d5e8d4;strokeColor=#82b366;" parent="1" vertex="1">
                    <mxGeometry x="787" y="520" width="120" height="39" as="geometry"/>
                </mxCell>
                <mxCell id="54" value="" style="endArrow=classic;html=1;rounded=1;fontFamily=Helvetica;fontSize=14;exitX=1.005;exitY=0.73;exitDx=0;exitDy=0;exitPerimeter=0;edgeStyle=orthogonalEdgeStyle;" parent="1" source="31" target="23" edge="1">
                    <mxGeometry width="50" height="50" relative="1" as="geometry">
                        <mxPoint x="710" y="70" as="sourcePoint"/>
                        <mxPoint x="760" y="20" as="targetPoint"/>
                        <Array as="points">
                            <mxPoint x="400" y="318"/>
                            <mxPoint x="400" y="311"/>
                            <mxPoint x="430" y="311"/>
                            <mxPoint x="430" y="380"/>
                        </Array>
                    </mxGeometry>
                </mxCell>
                <mxCell id="56" value="" style="endArrow=classic;html=1;rounded=1;fontFamily=Helvetica;fontSize=14;edgeStyle=orthogonalEdgeStyle;entryX=0;entryY=0.5;entryDx=0;entryDy=0;" parent="1" target="21" edge="1">
                    <mxGeometry width="50" height="50" relative="1" as="geometry">
                        <mxPoint x="400" y="310" as="sourcePoint"/>
                        <mxPoint x="675.7894736842104" y="85.5" as="targetPoint"/>
                    </mxGeometry>
                </mxCell>
                <mxCell id="58" value="" style="edgeStyle=orthogonalEdgeStyle;rounded=0;orthogonalLoop=1;jettySize=auto;html=1;entryX=0;entryY=0.5;entryDx=0;entryDy=0;exitX=1;exitY=0.5;exitDx=0;exitDy=0;fontSize=14;" parent="1" edge="1">
                    <mxGeometry x="-0.0769" y="9" relative="1" as="geometry">
                        <mxPoint x="907" y="539.5" as="sourcePoint"/>
                        <mxPoint x="972" y="539.5" as="targetPoint"/>
                        <Array as="points"/>
                        <mxPoint y="-1" as="offset"/>
                    </mxGeometry>
                </mxCell>
                <mxCell id="61" value="&lt;div&gt;OCSP (eGK)&lt;/div&gt;" style="rounded=0;whiteSpace=wrap;html=1;fillColor=#eeeeee;strokeColor=#666666;" parent="1" vertex="1">
                    <mxGeometry x="840" y="50" width="120" height="40" as="geometry"/>
                </mxCell>
                <mxCell id="70" value="" style="endArrow=classic;html=1;rounded=1;fontFamily=Helvetica;fontSize=14;entryX=0.414;entryY=0.994;entryDx=0;entryDy=0;entryPerimeter=0;exitX=0.759;exitY=0.003;exitDx=0;exitDy=0;exitPerimeter=0;startArrow=classic;startFill=1;" parent="1" edge="1">
                    <mxGeometry width="50" height="50" relative="1" as="geometry">
                        <mxPoint x="890.4300000000001" y="161.20000000000005" as="sourcePoint"/>
                        <mxPoint x="890" y="89.99999999999999" as="targetPoint"/>
                    </mxGeometry>
                </mxCell>
                <mxCell id="73" value="" style="group" parent="1" vertex="1" connectable="0">
                    <mxGeometry x="-170" y="30" width="260" height="130" as="geometry"/>
                </mxCell>
                <mxCell id="74" value="&amp;nbsp;Legende&amp;nbsp; &amp;nbsp;&amp;nbsp;" style="rounded=0;whiteSpace=wrap;html=1;align=right;verticalAlign=top;" parent="73" vertex="1">
                    <mxGeometry y="14.444444444444446" width="260" height="115.55555555555557" as="geometry"/>
                </mxCell>
                <mxCell id="75" value="" style="rounded=0;whiteSpace=wrap;html=1;fillColor=#d5e8d4;strokeColor=#82b366;" parent="73" vertex="1">
                    <mxGeometry x="20" y="23.111111111111114" width="80" height="14.444444444444446" as="geometry"/>
                </mxCell>
                <mxCell id="76" value="PoPP" style="text;html=1;align=left;verticalAlign=middle;whiteSpace=wrap;rounded=0;" parent="73" vertex="1">
                    <mxGeometry x="110" y="23.111111111111114" width="130" height="14.444444444444446" as="geometry"/>
                </mxCell>
                <mxCell id="77" value="" style="rounded=0;whiteSpace=wrap;html=1;fillColor=#f5f5f5;strokeColor=#666666;fontColor=#333333;" parent="73" vertex="1">
                    <mxGeometry x="20" y="65" width="80" height="14.444444444444446" as="geometry"/>
                </mxCell>
                <mxCell id="78" value="Bestehende Systeme" style="text;html=1;align=left;verticalAlign=middle;whiteSpace=wrap;rounded=0;" parent="73" vertex="1">
                    <mxGeometry x="110" y="65" width="130" height="14.444444444444446" as="geometry"/>
                </mxCell>
                <mxCell id="79" style="edgeStyle=orthogonalEdgeStyle;rounded=1;orthogonalLoop=1;jettySize=auto;html=1;curved=0;" parent="73" edge="1">
                    <mxGeometry relative="1" as="geometry">
                        <mxPoint x="20" y="97.29055555555558" as="sourcePoint"/>
                        <mxPoint x="60" y="97.29055555555558" as="targetPoint"/>
                        <Array as="points">
                            <mxPoint x="40" y="97.5"/>
                            <mxPoint x="40" y="97.5"/>
                        </Array>
                    </mxGeometry>
                </mxCell>
                <mxCell id="80" value="Kommunikation" style="text;html=1;align=left;verticalAlign=middle;whiteSpace=wrap;rounded=0;" parent="73" vertex="1">
                    <mxGeometry x="110" y="90.27777777777779" width="120" height="14.444444444444446" as="geometry"/>
                </mxCell>
                <mxCell id="83" value="" style="rounded=0;whiteSpace=wrap;html=1;fillColor=#ffe6cc;strokeColor=#d79b00;" parent="73" vertex="1">
                    <mxGeometry x="20" y="44.05555555555556" width="80" height="14.444444444444446" as="geometry"/>
                </mxCell>
                <mxCell id="84" value="Zero Trust" style="text;html=1;align=left;verticalAlign=middle;whiteSpace=wrap;rounded=0;" parent="73" vertex="1">
                    <mxGeometry x="110" y="44.05555555555556" width="130" height="14.444444444444446" as="geometry"/>
                </mxCell>
                <mxCell id="sL5bx-2vfq6t79VZnhpz-120" style="edgeStyle=orthogonalEdgeStyle;rounded=1;orthogonalLoop=1;jettySize=auto;html=1;curved=0;strokeColor=light-dark(#FBB26E,#EDEDED);" parent="73" edge="1">
                    <mxGeometry relative="1" as="geometry">
                        <mxPoint x="30" y="104.51277777777781" as="sourcePoint"/>
                        <mxPoint x="70" y="104.51277777777781" as="targetPoint"/>
                        <Array as="points">
                            <mxPoint x="50" y="104.72222222222223"/>
                            <mxPoint x="50" y="104.72222222222223"/>
                        </Array>
                    </mxGeometry>
                </mxCell>
                <mxCell id="85" value="" style="endArrow=classic;html=1;rounded=1;fontFamily=Helvetica;fontSize=14;entryX=0.5;entryY=0;entryDx=0;entryDy=0;exitX=0.15;exitY=1;exitDx=0;exitDy=0;exitPerimeter=0;" parent="1" edge="1">
                    <mxGeometry width="50" height="50" relative="1" as="geometry">
                        <mxPoint x="867" y="480" as="sourcePoint"/>
                        <mxPoint x="867" y="520" as="targetPoint"/>
                    </mxGeometry>
                </mxCell>
                <mxCell id="87" value="LE/ MFA" style="shape=umlActor;verticalLabelPosition=bottom;verticalAlign=top;html=1;outlineConnect=0;" parent="1" vertex="1">
                    <mxGeometry x="-10" y="234" width="30" height="60" as="geometry"/>
                </mxCell>
                <mxCell id="88" style="edgeStyle=orthogonalEdgeStyle;rounded=0;orthogonalLoop=1;jettySize=auto;html=1;" parent="1" source="87" target="31" edge="1">
                    <mxGeometry relative="1" as="geometry">
                        <mxPoint x="80" y="280" as="targetPoint"/>
                        <Array as="points">
                            <mxPoint x="120" y="264"/>
                            <mxPoint x="120" y="264"/>
                        </Array>
                    </mxGeometry>
                </mxCell>
                <mxCell id="93" value="" style="edgeStyle=orthogonalEdgeStyle;rounded=0;orthogonalLoop=1;jettySize=auto;html=1;" parent="1" edge="1">
                    <mxGeometry relative="1" as="geometry">
                        <mxPoint x="5" y="390" as="sourcePoint"/>
                        <mxPoint x="5" y="330" as="targetPoint"/>
                    </mxGeometry>
                </mxCell>
                <mxCell id="94" value="&lt;font style=&quot;font-size: 13px;&quot;&gt;übergibt eGK&lt;/font&gt;" style="edgeLabel;html=1;align=center;verticalAlign=middle;resizable=0;points=[];" parent="93" vertex="1" connectable="0">
                    <mxGeometry x="-0.0333" relative="1" as="geometry">
                        <mxPoint x="45" y="6" as="offset"/>
                    </mxGeometry>
                </mxCell>
                <mxCell id="95" value="Versicherter&lt;br&gt;mit eGK (vorort)" style="shape=umlActor;verticalLabelPosition=bottom;verticalAlign=top;html=1;outlineConnect=0;" parent="1" vertex="1">
                    <mxGeometry x="-10" y="400" width="30" height="60" as="geometry"/>
                </mxCell>
                <mxCell id="96" value="&lt;div&gt;OCSP (SM(C)-B)&lt;/div&gt;" style="rounded=0;whiteSpace=wrap;html=1;fillColor=#eeeeee;strokeColor=#666666;" parent="1" vertex="1">
                    <mxGeometry x="540" y="40" width="120" height="40" as="geometry"/>
                </mxCell>
                <mxCell id="97" style="rounded=1;orthogonalLoop=1;jettySize=auto;html=1;entryX=0.57;entryY=0.98;entryDx=0;entryDy=0;entryPerimeter=0;edgeStyle=elbowEdgeStyle;elbow=vertical;exitX=0.921;exitY=-0.003;exitDx=0;exitDy=0;exitPerimeter=0;fillColor=#ffe6cc;strokeColor=#d79b00;curved=0;" parent="1" source="20" target="96" edge="1">
                    <mxGeometry relative="1" as="geometry">
                        <Array as="points">
                            <mxPoint x="720" y="100"/>
                        </Array>
                    </mxGeometry>
                </mxCell>
                <mxCell id="98" value="&lt;div&gt;OCSP (Komp)/ (Internet-CA)&lt;/div&gt;" style="rounded=0;whiteSpace=wrap;html=1;fillColor=#eeeeee;strokeColor=#666666;" parent="1" vertex="1">
                    <mxGeometry x="990" y="50" width="120" height="40" as="geometry"/>
                </mxCell>
                <mxCell id="104" value="" style="endArrow=classic;html=1;rounded=1;fontFamily=Helvetica;fontSize=14;entryX=0.414;entryY=0.994;entryDx=0;entryDy=0;entryPerimeter=0;exitX=0.759;exitY=0.003;exitDx=0;exitDy=0;exitPerimeter=0;startArrow=classic;startFill=1;" parent="1" edge="1">
                    <mxGeometry width="50" height="50" relative="1" as="geometry">
                        <mxPoint x="1036.42" y="160.00000000000003" as="sourcePoint"/>
                        <mxPoint x="1036.31" y="89.03999999999999" as="targetPoint"/>
                    </mxGeometry>
                </mxCell>
                <mxCell id="105" value="" style="endArrow=classic;html=1;rounded=1;fontFamily=Helvetica;fontSize=14;edgeStyle=orthogonalEdgeStyle;exitX=1.001;exitY=0.726;exitDx=0;exitDy=0;exitPerimeter=0;" parent="1" target="108" edge="1">
                    <mxGeometry width="50" height="50" relative="1" as="geometry">
                        <mxPoint x="397.23850000000016" y="310.37800000000004" as="sourcePoint"/>
                        <mxPoint x="1130" y="238" as="targetPoint"/>
                        <Array as="points">
                            <mxPoint x="427" y="310"/>
                            <mxPoint x="427" y="238"/>
                        </Array>
                    </mxGeometry>
                </mxCell>
                <mxCell id="107" value="" style="group" parent="1" vertex="1" connectable="0">
                    <mxGeometry x="804" y="158.5" width="336" height="341.5" as="geometry"/>
                </mxCell>
                <mxCell id="108" value="&lt;font style=&quot;font-size: 14px;&quot;&gt;&amp;nbsp;&lt;b&gt;PoPP-Service&amp;nbsp;&lt;/b&gt;&lt;/font&gt;" style="rounded=0;whiteSpace=wrap;html=1;strokeColor=#90bc78;fillColor=#E4F7E2;align=left;verticalAlign=top;" parent="107" vertex="1">
                    <mxGeometry width="301.9130434782609" height="320" as="geometry"/>
                </mxCell>
                <mxCell id="109" value="eGK-Kommunikation" style="rounded=0;whiteSpace=wrap;html=1;strokeColor=#90bc78;fillColor=#C7D9C6;" parent="107" vertex="1">
                    <mxGeometry x="38.95652173913044" y="41.5" width="116.86956521739131" height="60" as="geometry"/>
                </mxCell>
                <mxCell id="110" value="" style="group" parent="107" vertex="1" connectable="0">
                    <mxGeometry x="39.9304347826087" y="211.5" width="116.86956521739131" height="80" as="geometry"/>
                </mxCell>
                <mxCell id="111" value="Zugriffsautorisierung&lt;br&gt;Business Logik" style="rounded=0;whiteSpace=wrap;html=1;strokeColor=#90bc78;fillColor=#c7d9c6;verticalAlign=top;" parent="110" vertex="1">
                    <mxGeometry width="116.86956521739131" height="80" as="geometry"/>
                </mxCell>
                <mxCell id="112" value="" style="strokeWidth=1;html=1;shape=mxgraph.flowchart.database;whiteSpace=wrap;fillColor=#d5e8d4;strokeColor=#82b366;" parent="110" vertex="1">
                    <mxGeometry x="9.73913043478261" y="40" width="28.243478260869566" height="30" as="geometry"/>
                </mxCell>
                <mxCell id="113" value="" style="group" parent="107" vertex="1" connectable="0">
                    <mxGeometry x="175.30434782608697" y="40" width="113.18817391304349" height="61.5" as="geometry"/>
                </mxCell>
                <mxCell id="114" value="eGK-Hash- Datenbank" style="rounded=0;whiteSpace=wrap;html=1;strokeColor=#90bc78;fillColor=#c7d9c6;verticalAlign=top;" parent="113" vertex="1">
                    <mxGeometry width="113.18817391304349" height="61.5" as="geometry"/>
                </mxCell>
                <mxCell id="115" value="" style="strokeWidth=1;html=1;shape=mxgraph.flowchart.database;whiteSpace=wrap;fillColor=#d5e8d4;strokeColor=#82b366;" parent="113" vertex="1">
                    <mxGeometry x="5.658434782608695" y="30" width="22.58504347826087" height="29.43" as="geometry"/>
                </mxCell>
                <mxCell id="116" value="Token Erstellung" style="rounded=0;whiteSpace=wrap;html=1;strokeColor=#90bc78;fillColor=#c7d9c6;" parent="107" vertex="1">
                    <mxGeometry x="38.95652173913044" y="111.5" width="116.86956521739131" height="40" as="geometry"/>
                </mxCell>
                <mxCell id="118" value="Schlüsselspeicher" style="rounded=0;whiteSpace=wrap;html=1;strokeColor=#90bc78;fillColor=#c7d9c6;" parent="107" vertex="1">
                    <mxGeometry x="175.30434782608697" y="111.5" width="116.86956521739131" height="40" as="geometry"/>
                </mxCell>
                <mxCell id="29" value="" style="group;fillColor=#ebf1df;" parent="1" vertex="1" connectable="0">
                    <mxGeometry x="150" y="119" width="270" height="412" as="geometry"/>
                </mxCell>
                <UserObject label="&lt;div style=&quot;&quot;&gt;&lt;p style=&quot;text-align: right; margin: 0px; text-indent: 0px; vertical-align: top; direction: ltr;&quot;&gt;&lt;font style=&quot;color: rgb(0, 0, 0); direction: ltr; letter-spacing: 0px; line-height: 120%; opacity: 1;&quot;&gt;&lt;font style=&quot;font-size: 14px;&quot;&gt;&lt;br&gt;LEI-Umgebung&amp;nbsp;&lt;/font&gt;&lt;br&gt;&lt;/font&gt;&lt;/p&gt;&lt;/div&gt;" tags="Hintergrund" id="30">
                    <mxCell style="verticalAlign=top;align=right;overflow=width;vsdxID=324;fillColor=#f2f2f2;gradientColor=none;shape=stencil(nZBLDoAgDERP0z3SIyjew0SURgSD+Lu9kMZoXLhwN9O+tukAlrNpJg1SzDH4QW/URgNYgZTkjA4UkwJUgGXng+6DX1zLfmoymdXo17xh5zmRJ6Q42BWCfc2oJfdAr+Yv+AP9Cb7OJ3H/2JG1HNGz/84klThPVCc=);strokeWidth=1;spacingTop=-1;spacingBottom=-1;spacingLeft=-1;spacingRight=-1;points=[[0.5,0,0],[1,0.5,0],[0.5,0.5,0],[0.5,0.5,0]];labelBackgroundColor=none;rounded=0;html=1;whiteSpace=wrap;strokeColor=#979595;" parent="29" vertex="1">
                        <mxGeometry width="270" height="412" as="geometry"/>
                    </mxCell>
                </UserObject>
                <UserObject label="&lt;div style=&quot;font-size: 9px;&quot;&gt;&lt;font style=&quot;font-size: 9px; font-family: Arial; color: rgb(0, 0, 0); direction: ltr; letter-spacing: 0px; line-height: 120%; opacity: 1;&quot;&gt;&lt;br&gt;&lt;/font&gt;&lt;/div&gt;&lt;div style=&quot;font-size: 14px;&quot;&gt;&lt;font style=&quot;font-size: 14px; font-family: Arial; color: rgb(0, 0, 0); direction: ltr; letter-spacing: 0px; line-height: 120%; opacity: 1;&quot;&gt;Primärsystem     &lt;br&gt;&lt;/font&gt;&lt;/div&gt;" tags="Hintergrund" id="31">
                    <mxCell style="verticalAlign=top;align=center;overflow=width;vsdxID=168;fillColor=#ffffff;gradientColor=none;shape=stencil(nZBLDoAgDERP0z3SIyjew0SURgSD+Lu9kMZoXLhwN9O+tukAlrNpJg1SzDH4QW/URgNYgZTkjA4UkwJUgGXng+6DX1zLfmoymdXo17xh5zmRJ6Q42BWCfc2oJfdAr+Yv+AP9Cb7OJ3H/2JG1HNGz/84klThPVCc=);strokeWidth=1;spacingTop=-1;spacingBottom=-1;spacingLeft=-1;spacingRight=-1;points=[[0.5,0,0],[1,0.5,0],[0.5,0.5,0],[0.5,0.5,0]];labelBackgroundColor=none;rounded=0;html=1;whiteSpace=wrap;strokeColor=#979595;" parent="29" vertex="1">
                        <mxGeometry x="11.5" y="70" width="238.5" height="177" as="geometry"/>
                    </mxCell>
                </UserObject>
                <UserObject label="&lt;div style=&quot;font-size: 6px;&quot;&gt;&lt;span style=&quot;letter-spacing: 0px; background-color: initial;&quot;&gt;&lt;b&gt;&lt;br&gt;&lt;/b&gt;&lt;/span&gt;&lt;/div&gt;&lt;div style=&quot;&quot;&gt;&lt;span style=&quot;letter-spacing: 0px; background-color: initial;&quot;&gt;&lt;b&gt;PoPP-Client&lt;/b&gt;&lt;/span&gt;&lt;br&gt;&lt;/div&gt;" tags="Hintergrund" id="32">
                    <mxCell style="verticalAlign=top;align=center;overflow=width;vsdxID=327;fillColor=#ebf1df;gradientColor=none;shape=stencil(nZBLDoAgDERP0z3SIyjew0SURgSD+Lu9kMZoXLhwN9O+tukAlrNpJg1SzDH4QW/URgNYgZTkjA4UkwJUgGXng+6DX1zLfmoymdXo17xh5zmRJ6Q42BWCfc2oJfdAr+Yv+AP9Cb7OJ3H/2JG1HNGz/84klThPVCc=);strokeWidth=1;spacingTop=-1;spacingBottom=-1;spacingLeft=-1;spacingRight=-1;points=[[0.5,0,0],[1,0.5,0],[0.5,0.5,0],[0.5,0.5,0]];labelBackgroundColor=none;rounded=0;html=1;whiteSpace=wrap;strokeColor=#9dc282;" parent="29" vertex="1">
                        <mxGeometry x="25" y="120" width="95" height="110" as="geometry"/>
                    </mxCell>
                </UserObject>
                <UserObject label="&lt;div style=&quot;font-size: 1px&quot;&gt;&lt;font style=&quot;font-size:11.29px;font-family:Arial;color:#000000;direction:ltr;letter-spacing:0px;line-height:120%;opacity:1&quot;&gt;eGK-Proof&lt;br&gt;&lt;/font&gt;&lt;/div&gt;" tags="Hintergrund" id="33">
                    <mxCell style="verticalAlign=middle;align=center;overflow=width;vsdxID=326;fillColor=#ebf1df;gradientColor=none;shape=stencil(nZBLDoAgDERP0z3SIyjew0SURgSD+Lu9kMZoXLhwN9O+tukAlrNpJg1SzDH4QW/URgNYgZTkjA4UkwJUgGXng+6DX1zLfmoymdXo17xh5zmRJ6Q42BWCfc2oJfdAr+Yv+AP9Cb7OJ3H/2JG1HNGz/84klThPVCc=);strokeWidth=1;spacingTop=-1;spacingBottom=-1;spacingLeft=-1;spacingRight=-1;points=[[0.5,0,0],[1,0.5,0],[0.5,0.5,0],[0.5,0.5,0]];labelBackgroundColor=none;rounded=0;html=1;whiteSpace=wrap;strokeColor=#90bc78;" parent="29" vertex="1">
                        <mxGeometry x="30.5" y="172" width="84" height="27" as="geometry"/>
                    </mxCell>
                </UserObject>
                <mxCell id="34" parent="29" vertex="1">
                    <mxGeometry x="187.5" y="224" as="geometry"/>
                </mxCell>
                <UserObject label="" tags="Hintergrund" id="35">
                    <mxCell style="vsdxID=351;fillColor=none;gradientColor=none;points=[];labelBackgroundColor=none;rounded=0;strokeColor=none;html=1;whiteSpace=wrap;" parent="29" vertex="1">
                        <mxGeometry x="31.5" y="268" width="110" height="110" as="geometry"/>
                    </mxCell>
                </UserObject>
                <mxCell id="36" value="&lt;div style=&quot;font-size: 1px&quot;&gt;&lt;font style=&quot;font-size:11.29px;font-family:Arial;color:#7f7f7f;direction:ltr;letter-spacing:0px;line-height:120%;opacity:1&quot;&gt;eH-KT oder Standard-Kartenleser&lt;/font&gt;&lt;/div&gt;" style="verticalAlign=bottom;align=center;overflow=width;vsdxID=329;fillColor=#f2f2f2;gradientColor=none;shape=stencil(nZBLDoAgDERP0z3SIyjew0SURgSD+Lu9kMZoXLhwN9O+tukAlrNpJg1SzDH4QW/URgNYgZTkjA4UkwJUgGXng+6DX1zLfmoymdXo17xh5zmRJ6Q42BWCfc2oJfdAr+Yv+AP9Cb7OJ3H/2JG1HNGz/84klThPVCc=);dashed=1;dashPattern=2.00 2.00;strokeWidth=2;spacingTop=-1;spacingBottom=-1;spacingLeft=-1;spacingRight=-1;points=[[0.5,0,0],[1,0.5,0],[0.5,0.5,0],[0.5,0.5,0]];labelBackgroundColor=none;rounded=0;html=1;whiteSpace=wrap;" parent="35" vertex="1">
                    <mxGeometry width="100" height="110" as="geometry"/>
                </mxCell>
                <mxCell id="37" value="&lt;div style=&quot;font-size: 1px&quot;&gt;&lt;font style=&quot;font-size:11.29px;font-family:Arial;color:#000000;direction:ltr;letter-spacing:0px;line-height:120%;opacity:1&quot;&gt;eGK,&lt;br&gt;&lt;/font&gt;&lt;/div&gt;" style="verticalAlign=middle;align=center;overflow=width;vsdxID=219;fillColor=#d8d8d8;gradientColor=none;shape=stencil(nZBLDoAgDERP0z3SIyjew0SURgSD+Lu9kMZoXLhwN9O+tukAlrNpJg1SzDH4QW/URgNYgZTkjA4UkwJUgGXng+6DX1zLfmoymdXo17xh5zmRJ6Q42BWCfc2oJfdAr+Yv+AP9Cb7OJ3H/2JG1HNGz/84klThPVCc=);strokeWidth=1;spacingTop=-1;spacingBottom=-1;spacingLeft=-1;spacingRight=-1;points=[[0.5,0,0],[1,0.5,0],[0.5,0.5,0],[0.5,0.5,0]];labelBackgroundColor=none;rounded=0;html=1;whiteSpace=wrap;strokeColor=#979595;" parent="35" vertex="1">
                    <mxGeometry x="14.84" y="10" width="65.16" height="40" as="geometry"/>
                </mxCell>
                <UserObject label="" tags="Hintergrund" id="38">
                    <mxCell style="vsdxID=351;fillColor=none;gradientColor=none;points=[];labelBackgroundColor=none;rounded=0;strokeColor=none;html=1;whiteSpace=wrap;" parent="29" vertex="1">
                        <mxGeometry x="151.5" y="268" width="70" height="110" as="geometry"/>
                    </mxCell>
                </UserObject>
                <mxCell id="39" value="&lt;div style=&quot;font-size: 1px&quot;&gt;&lt;font style=&quot;font-size:11.29px;font-family:Arial;color:#7f7f7f;direction:ltr;letter-spacing:0px;line-height:120%;opacity:1&quot;&gt;eH-KT oder als HSM-B&amp;nbsp;&lt;/font&gt;&lt;/div&gt;&lt;div style=&quot;font-size: 1px&quot;&gt;&lt;br&gt;&lt;/div&gt;&lt;div style=&quot;font-size: 1px&quot;&gt;&lt;br&gt;&lt;/div&gt;" style="verticalAlign=bottom;align=center;overflow=width;vsdxID=329;fillColor=#f2f2f2;gradientColor=none;shape=stencil(nZBLDoAgDERP0z3SIyjew0SURgSD+Lu9kMZoXLhwN9O+tukAlrNpJg1SzDH4QW/URgNYgZTkjA4UkwJUgGXng+6DX1zLfmoymdXo17xh5zmRJ6Q42BWCfc2oJfdAr+Yv+AP9Cb7OJ3H/2JG1HNGz/84klThPVCc=);dashed=1;dashPattern=2.00 2.00;strokeWidth=2;spacingTop=-1;spacingBottom=-1;spacingLeft=-1;spacingRight=-1;points=[[0.5,0,0],[1,0.5,0],[0.5,0.5,0],[0.5,0.5,0]];labelBackgroundColor=none;rounded=0;html=1;whiteSpace=wrap;" parent="38" vertex="1">
                    <mxGeometry width="70" height="110" as="geometry"/>
                </mxCell>
                <mxCell id="40" value="&lt;div style=&quot;font-size: 1px&quot;&gt;&lt;font style=&quot;font-size:11.29px;font-family:Arial;color:#000000;direction:ltr;letter-spacing:0px;line-height:120%;opacity:1&quot;&gt;SMC-B&lt;br&gt;&lt;/font&gt;&lt;/div&gt;" style="verticalAlign=middle;align=center;overflow=width;vsdxID=219;fillColor=#d8d8d8;gradientColor=none;shape=stencil(nZBLDoAgDERP0z3SIyjew0SURgSD+Lu9kMZoXLhwN9O+tukAlrNpJg1SzDH4QW/URgNYgZTkjA4UkwJUgGXng+6DX1zLfmoymdXo17xh5zmRJ6Q42BWCfc2oJfdAr+Yv+AP9Cb7OJ3H/2JG1HNGz/84klThPVCc=);strokeWidth=1;spacingTop=-1;spacingBottom=-1;spacingLeft=-1;spacingRight=-1;points=[[0.5,0,0],[1,0.5,0],[0.5,0.5,0],[0.5,0.5,0]];labelBackgroundColor=none;rounded=0;html=1;whiteSpace=wrap;strokeColor=#979595;" parent="38" vertex="1">
                    <mxGeometry x="9.44" y="10.38" width="50.56" height="39.62" as="geometry"/>
                </mxCell>
                <mxCell id="41" value="" style="endArrow=classic;html=1;rounded=0;exitX=0.491;exitY=0.961;exitDx=0;exitDy=0;exitPerimeter=0;entryX=0.366;entryY=0.003;entryDx=0;entryDy=0;entryPerimeter=0;startArrow=classic;startFill=1;" parent="29" source="33" target="35" edge="1">
                    <mxGeometry width="50" height="50" relative="1" as="geometry">
                        <mxPoint x="-124.5" y="178" as="sourcePoint"/>
                        <mxPoint x="35.5" y="268" as="targetPoint"/>
                    </mxGeometry>
                </mxCell>
                <mxCell id="42" value="APDUs" style="edgeLabel;html=1;align=center;verticalAlign=middle;resizable=0;points=[];" parent="41" vertex="1" connectable="0">
                    <mxGeometry x="0.2059" y="-3" relative="1" as="geometry">
                        <mxPoint x="-19" y="-20" as="offset"/>
                    </mxGeometry>
                </mxCell>
                <mxCell id="43" value="&lt;b&gt;Zeta Client&lt;/b&gt;" style="rounded=0;whiteSpace=wrap;html=1;fillColor=#ffe6cc;strokeColor=#d79b00;verticalAlign=top;" parent="29" vertex="1">
                    <mxGeometry x="134" y="120" width="100" height="110" as="geometry"/>
                </mxCell>
                <mxCell id="44" value="" style="endArrow=classic;html=1;exitX=0.517;exitY=1.085;exitDx=0;exitDy=0;exitPerimeter=0;rounded=0;" parent="29" source="45" target="39" edge="1">
                    <mxGeometry width="50" height="50" relative="1" as="geometry">
                        <mxPoint x="228.5" y="160" as="sourcePoint"/>
                        <mxPoint x="371.5" y="140" as="targetPoint"/>
                    </mxGeometry>
                </mxCell>
                <UserObject label="&lt;div style=&quot;font-size: 1px&quot;&gt;&lt;font style=&quot;font-size:11.29px;font-family:Arial;color:#000000;direction:ltr;letter-spacing:0px;line-height:120%;opacity:1&quot;&gt;SM-B-Auth&lt;br&gt;&lt;/font&gt;&lt;/div&gt;" tags="Hintergrund" id="45">
                    <mxCell style="verticalAlign=middle;align=center;overflow=width;vsdxID=326;fillColor=#ffe6cc;shape=stencil(nZBLDoAgDERP0z3SIyjew0SURgSD+Lu9kMZoXLhwN9O+tukAlrNpJg1SzDH4QW/URgNYgZTkjA4UkwJUgGXng+6DX1zLfmoymdXo17xh5zmRJ6Q42BWCfc2oJfdAr+Yv+AP9Cb7OJ3H/2JG1HNGz/84klThPVCc=);strokeWidth=1;spacingTop=-1;spacingBottom=-1;spacingLeft=-1;spacingRight=-1;points=[[0.5,0,0],[1,0.5,0],[0.5,0.5,0],[0.5,0.5,0]];labelBackgroundColor=none;rounded=0;html=1;whiteSpace=wrap;strokeColor=#d79b00;" parent="29" vertex="1">
                        <mxGeometry x="143.75" y="171" width="84" height="27" as="geometry"/>
                    </mxCell>
                </UserObject>
                <mxCell id="Qab7Join9ll70bqn1-yY-118" value="&lt;b&gt;&lt;i&gt;&lt;font style=&quot;font-size: 42px; color: rgb(255, 0, 0);&quot;&gt;Work in Progress&lt;/font&gt;&lt;/i&gt;&lt;/b&gt;" style="text;html=1;align=center;verticalAlign=middle;whiteSpace=wrap;rounded=0;rotation=-30;" parent="1" vertex="1">
                    <mxGeometry x="386.25" y="140" width="490" height="30" as="geometry"/>
                </mxCell>
            </root>
        </mxGraphModel>
    </diagram>
</mxfile>